<svg width="231" height="66" viewBox="0 0 231 66" fill="none" xmlns="http://www.w3.org/2000/svg">
<path d="M68.6313 35.8966V39.884H73.9859V42.4132H68.6313V46.6286H74.6695V49.2261H65.4413V33.299H74.6695V35.8966H68.6313ZM76.2925 42.9145C76.2925 41.6081 76.5583 40.4689 77.09 39.4967C77.6216 38.5093 78.3583 37.7498 79.3002 37.2181C80.242 36.6713 81.3205 36.3978 82.5357 36.3978C84.1003 36.3978 85.3915 36.7928 86.4093 37.5827C87.4422 38.3574 88.1334 39.4511 88.4827 40.8638H85.0421C84.8598 40.317 84.5484 39.8916 84.1079 39.5878C83.6826 39.2688 83.1509 39.1093 82.5129 39.1093C81.6015 39.1093 80.88 39.4435 80.3483 40.1119C79.8166 40.7651 79.5508 41.6993 79.5508 42.9145C79.5508 44.1146 79.8166 45.0488 80.3483 45.7172C80.88 46.3703 81.6015 46.6969 82.5129 46.6969C83.8041 46.6969 84.6472 46.1197 85.0421 44.9652H88.4827C88.1334 46.3324 87.4422 47.4185 86.4093 48.2236C85.3763 49.0287 84.0851 49.4312 82.5357 49.4312C81.3205 49.4312 80.242 49.1654 79.3002 48.6337C78.3583 48.0869 77.6216 47.3273 77.09 46.3551C76.5583 45.3678 76.2925 44.2209 76.2925 42.9145ZM95.9692 49.4312C94.754 49.4312 93.6603 49.1654 92.6881 48.6337C91.7159 48.0869 90.9488 47.3197 90.3868 46.3324C89.8399 45.345 89.5665 44.2057 89.5665 42.9145C89.5665 41.6233 89.8475 40.4841 90.4096 39.4967C90.9868 38.5093 91.7691 37.7498 92.7565 37.2181C93.7438 36.6713 94.8452 36.3978 96.0604 36.3978C97.2756 36.3978 98.3769 36.6713 99.3643 37.2181C100.352 37.7498 101.126 38.5093 101.688 39.4967C102.266 40.4841 102.554 41.6233 102.554 42.9145C102.554 44.2057 102.258 45.345 101.666 46.3324C101.088 47.3197 100.299 48.0869 99.2959 48.6337C98.3086 49.1654 97.1997 49.4312 95.9692 49.4312ZM95.9692 46.6514C96.5465 46.6514 97.0857 46.5146 97.587 46.2412C98.1035 45.9526 98.5136 45.5273 98.8174 44.9652C99.1213 44.4032 99.2732 43.7196 99.2732 42.9145C99.2732 41.7145 98.9542 40.7955 98.3162 40.1575C97.6934 39.5043 96.9262 39.1777 96.0148 39.1777C95.1034 39.1777 94.3363 39.5043 93.7135 40.1575C93.1059 40.7955 92.802 41.7145 92.802 42.9145C92.802 44.1146 93.0983 45.0412 93.6907 45.6944C94.2983 46.3324 95.0578 46.6514 95.9692 46.6514ZM120.73 33.4585V49.2261H118.657V37.4688L113.416 49.2261H111.958L106.694 37.446V49.2261H104.621V33.4585H106.854L112.687 46.4919L118.52 33.4585H120.73ZM123.016 42.9373C123.016 41.6613 123.275 40.5448 123.791 39.5878C124.307 38.6156 125.014 37.8637 125.91 37.3321C126.821 36.8004 127.832 36.5346 128.941 36.5346C130.034 36.5346 130.984 36.77 131.789 37.2409C132.594 37.7118 133.194 38.3042 133.589 39.0182V36.7396H135.685V49.2261H133.589V46.902C133.179 47.6311 132.563 48.2388 131.743 48.7249C130.938 49.1958 129.996 49.4312 128.918 49.4312C127.809 49.4312 126.806 49.1578 125.91 48.6109C125.014 48.0641 124.307 47.297 123.791 46.3096C123.275 45.3222 123.016 44.1981 123.016 42.9373ZM133.589 42.9601C133.589 42.0183 133.399 41.198 133.019 40.4993C132.639 39.8005 132.123 39.2688 131.47 38.9043C130.832 38.5245 130.125 38.3346 129.351 38.3346C128.576 38.3346 127.87 38.5169 127.232 38.8815C126.594 39.246 126.085 39.7777 125.705 40.4765C125.325 41.1752 125.135 41.9955 125.135 42.9373C125.135 43.8943 125.325 44.7298 125.705 45.4437C126.085 46.1425 126.594 46.6817 127.232 47.0615C127.87 47.4261 128.576 47.6084 129.351 47.6084C130.125 47.6084 130.832 47.4261 131.47 47.0615C132.123 46.6817 132.639 46.1425 133.019 45.4437C133.399 44.7298 133.589 43.9019 133.589 42.9601ZM140.807 38.7675C141.171 38.0536 141.688 37.4991 142.356 37.1042C143.04 36.7092 143.868 36.5118 144.84 36.5118V38.6536H144.293C141.969 38.6536 140.807 39.9144 140.807 42.436V49.2261H138.733V36.7396H140.807V38.7675ZM153.75 49.2261L148.851 43.712V49.2261H146.778V32.3648H148.851V42.2765L153.659 36.7396H156.553L150.674 42.9601L156.576 49.2261H153.75ZM169.441 42.5044C169.441 42.8993 169.419 43.3171 169.373 43.7576H159.393C159.469 44.988 159.887 45.9526 160.646 46.6514C161.421 47.3349 162.355 47.6767 163.449 47.6767C164.345 47.6767 165.089 47.4716 165.682 47.0615C166.289 46.6362 166.715 46.0741 166.958 45.3754H169.191C168.857 46.5754 168.188 47.5552 167.186 48.3147C166.183 49.059 164.937 49.4312 163.449 49.4312C162.264 49.4312 161.201 49.1654 160.259 48.6337C159.332 48.102 158.603 47.3501 158.071 46.3779C157.54 45.3906 157.274 44.2513 157.274 42.9601C157.274 41.6689 157.532 40.5372 158.049 39.565C158.565 38.5929 159.287 37.8485 160.213 37.3321C161.155 36.8004 162.234 36.5346 163.449 36.5346C164.634 36.5346 165.682 36.7928 166.593 37.3093C167.505 37.8257 168.203 38.5397 168.689 39.4511C169.191 40.3473 169.441 41.3651 169.441 42.5044ZM167.3 42.0715C167.3 41.2816 167.125 40.6056 166.775 40.0435C166.426 39.4663 165.948 39.0334 165.34 38.7448C164.748 38.441 164.087 38.289 163.358 38.289C162.31 38.289 161.413 38.6232 160.669 39.2916C159.94 39.96 159.522 40.8866 159.416 42.0715H167.3ZM174.252 38.4485V45.8083C174.252 46.4159 174.381 46.8488 174.639 47.1071C174.897 47.3501 175.346 47.4716 175.984 47.4716H177.51V49.2261H175.642C174.487 49.2261 173.621 48.9603 173.044 48.4286C172.467 47.897 172.178 47.0235 172.178 45.8083V38.4485H170.561V36.7396H172.178V33.5952H174.252V36.7396H177.51V38.4485H174.252ZM178.792 41.274C178.792 39.7245 179.141 38.3346 179.84 37.1042C180.539 35.8586 181.488 34.8864 182.688 34.1876C183.904 33.4889 185.248 33.1395 186.721 33.1395C188.453 33.1395 189.965 33.5572 191.256 34.3927C192.547 35.2282 193.489 36.413 194.081 37.9473H191.598C191.157 36.9903 190.519 36.2535 189.684 35.7371C188.863 35.2206 187.876 34.9623 186.721 34.9623C185.613 34.9623 184.618 35.2206 183.737 35.7371C182.855 36.2535 182.164 36.9903 181.663 37.9473C181.162 38.8891 180.911 39.998 180.911 41.274C180.911 42.5348 181.162 43.6437 181.663 44.6007C182.164 45.5425 182.855 46.2716 183.737 46.7881C184.618 47.3045 185.613 47.5628 186.721 47.5628C187.876 47.5628 188.863 47.3121 189.684 46.8109C190.519 46.2944 191.157 45.5577 191.598 44.6007H194.081C193.489 46.1197 192.547 47.297 191.256 48.1324C189.965 48.9527 188.453 49.3628 186.721 49.3628C185.248 49.3628 183.904 49.0211 182.688 48.3375C181.488 47.6387 180.539 46.6741 179.84 45.4437C179.141 44.2133 178.792 42.8234 178.792 41.274ZM195.937 42.9373C195.937 41.6613 196.196 40.5448 196.712 39.5878C197.228 38.6156 197.935 37.8637 198.831 37.3321C199.743 36.8004 200.753 36.5346 201.862 36.5346C202.955 36.5346 203.905 36.77 204.71 37.2409C205.515 37.7118 206.115 38.3042 206.51 39.0182V36.7396H208.606V49.2261H206.51V46.902C206.1 47.6311 205.484 48.2388 204.664 48.7249C203.859 49.1958 202.917 49.4312 201.839 49.4312C200.73 49.4312 199.727 49.1578 198.831 48.6109C197.935 48.0641 197.228 47.297 196.712 46.3096C196.196 45.3222 195.937 44.1981 195.937 42.9373ZM206.51 42.9601C206.51 42.0183 206.32 41.198 205.94 40.4993C205.56 39.8005 205.044 39.2688 204.391 38.9043C203.753 38.5245 203.046 38.3346 202.272 38.3346C201.497 38.3346 200.791 38.5169 200.153 38.8815C199.515 39.246 199.006 39.7777 198.626 40.4765C198.246 41.1752 198.056 41.9955 198.056 42.9373C198.056 43.8943 198.246 44.7298 198.626 45.4437C199.006 46.1425 199.515 46.6817 200.153 47.0615C200.791 47.4261 201.497 47.6084 202.272 47.6084C203.046 47.6084 203.753 47.4261 204.391 47.0615C205.044 46.6817 205.56 46.1425 205.94 45.4437C206.32 44.7298 206.51 43.9019 206.51 42.9601ZM213.728 39.041C214.138 38.327 214.746 37.7346 215.551 37.2637C216.371 36.7776 217.32 36.5346 218.399 36.5346C219.508 36.5346 220.51 36.8004 221.407 37.3321C222.318 37.8637 223.032 38.6156 223.548 39.5878C224.065 40.5448 224.323 41.6613 224.323 42.9373C224.323 44.1981 224.065 45.3222 223.548 46.3096C223.032 47.297 222.318 48.0641 221.407 48.6109C220.51 49.1578 219.508 49.4312 218.399 49.4312C217.336 49.4312 216.394 49.1958 215.574 48.7249C214.768 48.2388 214.153 47.6387 213.728 46.9248V55.1504H211.654V36.7396H213.728V39.041ZM222.204 42.9373C222.204 41.9955 222.014 41.1752 221.634 40.4765C221.255 39.7777 220.738 39.246 220.085 38.8815C219.447 38.5169 218.741 38.3346 217.966 38.3346C217.206 38.3346 216.5 38.5245 215.847 38.9043C215.209 39.2688 214.692 39.8081 214.298 40.522C213.918 41.2208 213.728 42.0335 213.728 42.9601C213.728 43.9019 213.918 44.7298 214.298 45.4437C214.692 46.1425 215.209 46.6817 215.847 47.0615C216.5 47.4261 217.206 47.6084 217.966 47.6084C218.741 47.6084 219.447 47.4261 220.085 47.0615C220.738 46.6817 221.255 46.1425 221.634 45.4437C222.014 44.7298 222.204 43.8943 222.204 42.9373Z" fill="black"/>
<path d="M30.907 34.3193L10.9055 24.7806L23.8328 24.6472L28.2165 12.3237L30.907 34.3193Z" fill="#47C91A"/>
<path d="M26.0283 28.2452L7.46061 17.4407L19.9613 18.3384L25.1755 6.77968L26.0283 28.2452Z" fill="#47C91A"/>
<path d="M21.3956 20.309L6.34557 10.1827L16.8292 11.6275L21.8591 2.17533L21.3956 20.309Z" fill="#47C91A"/>
<path fill-rule="evenodd" clip-rule="evenodd" d="M25.5059 26.2276L25.9644 26.4321L23.4028 9.15063L20.195 18.9511L20.1841 18.9515L25.5059 26.2276Z" fill="#33A70B"/>
<path fill-rule="evenodd" clip-rule="evenodd" d="M25.5059 26.2276L25.9644 26.4321L23.4028 9.15063L20.195 18.9511L20.1841 18.9515L25.5059 26.2276Z" fill="#33A70B"/>
<path fill-rule="evenodd" clip-rule="evenodd" d="M21.6304 20.9342L22.0863 21.1375L19.5247 3.85601L16.3169 13.6565L16.3077 13.6568L21.6304 20.9342Z" fill="#33A70B"/>
<path fill-rule="evenodd" clip-rule="evenodd" d="M21.6304 20.9342L22.0863 21.1375L19.5247 3.85601L16.3169 13.6565L16.3077 13.6568L21.6304 20.9342Z" fill="#33A70B"/>
<path fill-rule="evenodd" clip-rule="evenodd" d="M29.0568 31.0885L29.4376 31.2584L27.3215 16.9824L24.6716 25.0784L24.6613 25.0788L29.0568 31.0885Z" fill="#33A70B"/>
<path fill-rule="evenodd" clip-rule="evenodd" d="M29.0568 31.0885L29.4376 31.2584L27.3215 16.9824L24.6716 25.0784L24.6613 25.0788L29.0568 31.0885Z" fill="#33A70B"/>
<path d="M46.5238 36.1351C53.6555 45.8856 54.6489 52.3236 47.7423 57.3752C40.8356 62.4268 34.4679 61.952 27.3363 52.2015C20.2046 42.451 19.2064 32.8548 26.113 27.8032C33.0197 22.7517 39.3922 26.3845 46.5238 36.1351Z" fill="#F3BA2F"/>
<path fill-rule="evenodd" clip-rule="evenodd" d="M47.0174 55.6454C52.9051 51.3032 52.0373 45.7699 45.917 37.4021C39.7967 29.0342 34.3259 25.9013 28.4014 30.1931L47.0174 55.6454Z" fill="#E9AD1C"/>
<path d="M36.5149 54.8715L37.4231 52.7168L39.7516 52.5042L41.4088 54.7699L40.3732 56.7503L38.1721 57.1372L36.5149 54.8715Z" fill="#ECAE1A"/>
<path d="M31.3401 52.1182L32.2483 49.9635L34.5768 49.7509L36.234 52.0166L35.1984 53.997L32.9973 54.384L31.3401 52.1182Z" fill="#ECAE1A"/>
<path d="M27.6038 47.6247L28.5119 45.47L30.8405 45.2573L32.4977 47.523L31.462 49.5035L29.2609 49.8904L27.6038 47.6247Z" fill="#ECAE1A"/>
<path d="M24.7483 42.4865L25.6565 40.3318L27.985 40.1191L29.6422 42.3849L28.6066 44.3653L26.4055 44.7522L24.7483 42.4865Z" fill="#ECAE1A"/>
<path d="M23.5803 36.5659L24.4885 34.4112L26.8171 34.1985L28.4742 36.4642L27.4386 38.4446L25.2375 38.8316L23.5803 36.5659Z" fill="#ECAE1A"/>
<path d="M28.5735 39.6889L29.4816 37.5341L31.8102 37.3215L33.4674 39.5872L32.4318 41.5676L30.2307 41.9546L28.5735 39.6889Z" fill="#ECAE1A"/>
<path d="M32.0169 44.3966L32.925 42.2419L35.2536 42.0292L36.9108 44.295L35.8751 46.2754L33.674 46.6623L32.0169 44.3966Z" fill="#ECAE1A"/>
<path d="M35.4612 49.1047L36.3693 46.95L38.6979 46.7373L40.3551 49.003L39.3195 50.9834L37.1184 51.3704L35.4612 49.1047Z" fill="#ECAE1A"/>
</svg>
