<svg width="51" height="59" viewBox="0 0 51 59" fill="none" xmlns="http://www.w3.org/2000/svg">
<path d="M27.15 31.084L9.57952 22.7046L20.9355 22.5875L24.7864 11.7618L27.15 31.084Z" fill="#47C91A"/>
<path d="M22.8641 25.7483L6.55324 16.257L17.5346 17.0456L22.115 6.89173L22.8641 25.7483Z" fill="#47C91A"/>
<path d="M18.7954 18.7766L5.57463 9.88101L14.784 11.1502L19.2026 2.84691L18.7954 18.7766Z" fill="#47C91A"/>
<path fill-rule="evenodd" clip-rule="evenodd" d="M22.405 23.9756L22.8084 24.1556L20.5581 8.97455L17.7402 17.5838L17.7302 17.5842L22.405 23.9756Z" fill="#33A70B"/>
<path fill-rule="evenodd" clip-rule="evenodd" d="M22.405 23.9756L22.8084 24.1556L20.5581 8.97455L17.7402 17.5838L17.7302 17.5842L22.405 23.9756Z" fill="#33A70B"/>
<path fill-rule="evenodd" clip-rule="evenodd" d="M19.0023 19.326L19.402 19.5043L17.1517 4.32327L14.3338 12.9326L14.3262 12.9328L19.0023 19.326Z" fill="#33A70B"/>
<path fill-rule="evenodd" clip-rule="evenodd" d="M19.0023 19.326L19.402 19.5043L17.1517 4.32327L14.3338 12.9326L14.3262 12.9328L19.0023 19.326Z" fill="#33A70B"/>
<path fill-rule="evenodd" clip-rule="evenodd" d="M25.5266 28.2461L25.8604 28.395L24.0015 15.8542L21.6737 22.9662L21.6651 22.9665L25.5266 28.2461Z" fill="#33A70B"/>
<path fill-rule="evenodd" clip-rule="evenodd" d="M25.5266 28.2461L25.8604 28.395L24.0015 15.8542L21.6737 22.9662L21.6651 22.9665L25.5266 28.2461Z" fill="#33A70B"/>
<path d="M40.8694 32.679C47.1343 41.2444 48.0069 46.8999 41.9398 51.3375C35.8726 55.7751 30.2788 55.3581 24.014 46.7926C17.7492 38.2272 16.8723 29.7974 22.9394 25.3598C29.0066 20.9223 34.6046 24.1136 40.8694 32.679Z" fill="#F3BA2F"/>
<path fill-rule="evenodd" clip-rule="evenodd" d="M41.3031 49.8183C46.4755 46.0039 45.7132 41.143 40.3367 33.7921C34.9602 26.4412 30.1543 23.6891 24.9497 27.4596L41.3031 49.8183Z" fill="#E9AD1C"/>
<path d="M32.077 49.1383L32.8748 47.2455L34.9203 47.0586L36.3761 49.049L35.4663 50.7887L33.5328 51.1286L32.077 49.1383Z" fill="#ECAE1A"/>
<path d="M27.5311 46.7196L28.3289 44.8268L30.3744 44.6399L31.8302 46.6303L30.9204 48.37L28.9869 48.7099L27.5311 46.7196Z" fill="#ECAE1A"/>
<path d="M24.2484 42.7722L25.0462 40.8794L27.0917 40.6926L28.5475 42.6829L27.6377 44.4226L25.7041 44.7625L24.2484 42.7722Z" fill="#ECAE1A"/>
<path d="M21.7401 38.2585L22.5379 36.3657L24.5834 36.1789L26.0392 38.1692L25.1294 39.9089L23.1958 40.2488L21.7401 38.2585Z" fill="#ECAE1A"/>
<path d="M20.7142 33.0575L21.512 31.1646L23.5576 30.9778L25.0133 32.9682L24.1035 34.7079L22.17 35.0478L20.7142 33.0575Z" fill="#ECAE1A"/>
<path d="M25.1005 35.8009L25.8982 33.9081L27.9438 33.7212L29.3995 35.7116L28.4898 37.4513L26.5562 37.7912L25.1005 35.8009Z" fill="#ECAE1A"/>
<path d="M28.1258 39.9365L28.9236 38.0437L30.9692 37.8569L32.4249 39.8472L31.5152 41.5869L29.5816 41.9268L28.1258 39.9365Z" fill="#ECAE1A"/>
<path d="M31.1507 44.0724L31.9485 42.1795L33.9941 41.9927L35.4498 43.9831L34.5401 45.7228L32.6065 46.0627L31.1507 44.0724Z" fill="#ECAE1A"/>
</svg>
